<svg width="32" height="32" viewBox="0 0 100 100" fill="none" xmlns="http://www.w3.org/2000/svg">
  <rect width="100%" height="100%" fill="transparent" />
  <path
    d="M 75 35 C 70 30, 62 25, 50 25 C 32 25, 18 39, 18 57 C 18 75, 32 89, 50 89 C 68 89, 82 75, 82 57 C 82 48, 77 39, 68 34 C 55 27, 42 34, 39 46 C 36 57, 43 69, 54 72 C 63 74, 71 68, 71 60 C 71 54, 66 49, 60 49 C 54 49, 50 53, 50 58 C 50 61, 52 64, 55 64"
    stroke="#0ea5e9"
    stroke-width="10"
    stroke-linecap="round"
    stroke-linejoin="round"
  />
</svg>
